<svg aria-hidden="true" style="position: absolute; width: 0; height: 0; overflow: hidden;" version="1.1" xmlns="http://www.w3.org/2000/svg" xmlns:xlink="http://www.w3.org/1999/xlink">
<defs>
<symbol id="icon-caret-right" viewBox="0 0 31 32">
<path fill="#fff" style="fill: var(--color1, #fff)" d="M11.52 25.023l10.24-8.96-10.24-8.96v17.92z"></path>
</symbol>
<symbol id="icon-close-btn" viewBox="0 0 32 32">
<path fill="#fff" style="fill: var(--color1, #fff)" d="M21.589 8.459l-5.657 5.656-5.656-5.656-1.885 1.885 5.656 5.656-5.656 5.656 1.885 1.885 5.656-5.656 5.657 5.656 1.885-1.885-5.656-5.656 5.656-5.656-1.885-1.885z"></path>
</symbol>
<symbol id="icon-Company-Logo" viewBox="0 0 73 32">
<path fill="#764191" style="fill: var(--color2, #764191)" d="M13.471 6.854c0.259-0.030 0.558 0.028 0.807 0.104 0.563 0.172 1.022 0.539 1.293 1.064 0.282 0.538 0.336 1.167 0.15 1.745-0.236 0.713-0.744 1.072-1.377 1.401l0.007 2.080c0.453 0.138 0.893 0.294 1.304 0.533 0.945 0.548 1.591 1.471 1.862 2.522 0.286 1.102 0.124 2.273-0.453 3.255-0.529 0.89-1.371 1.547-2.38 1.799-1.318 0.329-2.436-0.027-3.569-0.701-0.501 0.535-0.995 1.077-1.484 1.624 0.218 0.515 0.291 1.056 0.146 1.603-0.142 0.535-0.516 0.993-0.996 1.264-0.537 0.304-1.15 0.359-1.739 0.191-0.585-0.167-1.076-0.529-1.362-1.073-0.281-0.535-0.305-1.162-0.123-1.733 0.207-0.649 0.63-1.049 1.224-1.346 0.639-0.25 1.168-0.168 1.792 0.057 0.52-0.547 1.009-1.121 1.534-1.663-0.577-1.131-0.764-2.095-0.464-3.342-0.653-0.305-1.283-0.66-1.936-0.965-0.349 0.364-0.776 0.613-1.278 0.697-0.598 0.101-1.228-0.063-1.719-0.413-0.487-0.353-0.807-0.891-0.886-1.487-0.081-0.578 0.072-1.215 0.442-1.671 0.382-0.47 0.974-0.755 1.572-0.817 0.588-0.057 1.174 0.122 1.629 0.498 0.582 0.488 0.75 1.094 0.821 1.816 0.619 0.38 1.329 0.672 1.974 1.011 0.84-0.993 1.454-1.306 2.678-1.683l0.001-2.064c-0.219-0.088-0.438-0.194-0.629-0.335-0.483-0.357-0.8-0.895-0.879-1.491-0.072-0.592 0.095-1.189 0.465-1.658 0.404-0.507 0.945-0.738 1.572-0.821zM16.17 17.123c-0.125-1.42-1.373-2.473-2.793-2.358-1.433 0.117-2.498 1.378-2.372 2.81s1.393 2.49 2.825 2.355c1.419-0.134 2.465-1.388 2.34-2.808z"></path>
<path fill="#764191" style="fill: var(--color2, #764191)" d="M64.564 13.898c0.422 0.001 0.844 0.006 1.266 0.017l-0.002 2.231c0.325-0.253 0.679-0.441 1.091-0.503 0.556-0.084 1.124 0.060 1.572 0.4 0.542 0.409 0.826 1.099 0.908 1.757 0.105 0.836-0.092 1.639-0.607 2.305-0.342 0.33-0.753 0.561-1.226 0.639-0.695 0.114-1.246-0.129-1.787-0.533l-0.002 0.487-1.212-0.002-0.001-6.798zM66.734 16.822c-0.376 0.125-0.638 0.304-0.822 0.666-0.204 0.402-0.218 0.899-0.058 1.319 0.121 0.321 0.349 0.599 0.666 0.742 0.23 0.104 0.447 0.107 0.695 0.093 0.393-0.149 0.657-0.339 0.835-0.733 0.186-0.411 0.183-0.906 0.007-1.32-0.135-0.318-0.377-0.574-0.702-0.7-0.203-0.078-0.407-0.089-0.621-0.066z"></path>
<path fill="#764191" style="fill: var(--color2, #764191)" d="M28.296 13.885c0.743 2.289 1.693 4.516 2.418 6.812l-1.369 0.001c-0.16-0.49-0.315-1.044-0.56-1.498-0.16-0.068-0.349-0.045-0.52-0.043-0.66 0.007-1.321 0.005-1.981-0.007-0.207 0.506-0.374 1.026-0.538 1.547l-1.394-0.001c0.728-2.285 1.596-4.541 2.382-6.808 0.52 0.011 1.043-0.001 1.563-0.003zM27.516 15.577c-0.288 0.819-0.557 1.65-0.873 2.459l1.002-0.001 0.779-0.008c-0.109-0.308-0.745-2.314-0.909-2.45z"></path>
<path fill="#764191" style="fill: var(--color2, #764191)" d="M57.158 13.9l1.309 0.008c-0.018 1.578-0.004 3.159-0.004 4.737-0 0.651 0.066 1.363-0.007 2.006l-0.072 0.049h-1.227l-0.003-2.914c-0.981-0.027-1.969-0.003-2.95-0.002l0 2.917-1.317-0.003 0.005-6.796 1.312 0.003 0.001 2.779h2.955l-0.002-2.784z"></path>
<path fill="#764191" style="fill: var(--color2, #764191)" d="M59.255 15.784c0.434 0.012 0.87 0.008 1.304 0.010-0.005 0.695-0.115 2.613 0.053 3.188 0.066 0.227 0.199 0.434 0.413 0.544 0.322 0.166 0.65 0.070 0.971-0.043 0.142-0.159 0.264-0.307 0.334-0.512 0.23-0.67 0.107-2.388 0.103-3.185 0.414 0.011 0.829 0.002 1.243 0-0.010 0.477-0.002 0.956-0.002 1.433l0.006 3.478c-0.407 0.006-0.814 0.003-1.22-0.009l-0.038-0.044c0.006-0.103 0.007-0.187-0.010-0.29-0.382 0.165-0.721 0.416-1.154 0.424-0.503 0.010-1.048-0.146-1.409-0.508-0.274-0.274-0.441-0.642-0.526-1.015-0.185-0.803-0.076-2.583-0.068-3.472z"></path>
<path fill="#764191" style="fill: var(--color2, #764191)" d="M41.659 15.647c0.649-0.051 1.326-0.005 1.85 0.432 0.368 0.306 0.487 0.674 0.526 1.131l-1.173-0.001c-0.068-0.125-0.135-0.271-0.241-0.369-0.169-0.156-0.414-0.237-0.643-0.225-0.178 0.010-0.405 0.081-0.515 0.231-0.067 0.091-0.104 0.186-0.078 0.3 0.133 0.602 1.663 0.527 2.15 0.846 0.31 0.203 0.548 0.567 0.617 0.93 0.069 0.371-0.020 0.755-0.244 1.058-0.374 0.515-0.95 0.701-1.549 0.793-0.555 0.034-1.199-0.115-1.643-0.454-0.416-0.317-0.566-0.706-0.623-1.207 0.395 0.001 0.791-0.003 1.186-0.011 0.023 0.075 0.049 0.146 0.086 0.215 0.172 0.318 0.516 0.388 0.834 0.482 0.21-0.048 0.495-0.102 0.645-0.272 0.090-0.103 0.122-0.281 0.084-0.412-0.146-0.503-1.612-0.562-2.12-0.875-0.301-0.186-0.522-0.456-0.603-0.804-0.072-0.316-0.045-0.671 0.133-0.948 0.321-0.501 0.763-0.707 1.321-0.84z"></path>
<path fill="#764191" style="fill: var(--color2, #764191)" d="M49.554 15.645c0.369-0.030 0.731-0.028 1.092 0.070 0.416 0.113 0.857 0.345 1.067 0.738 0.101 0.189 0.179 0.528 0.111 0.738-0.337 0.073-0.748 0.024-1.094 0.020-0.051-0.171-0.094-0.303-0.233-0.422-0.176-0.147-0.405-0.217-0.633-0.192-0.179 0.018-0.408 0.106-0.508 0.266-0.060 0.095-0.084 0.193-0.047 0.303 0.216 0.637 1.511 0.485 2.015 0.773 0.321 0.183 0.589 0.506 0.68 0.867 0.098 0.387 0.033 0.818-0.19 1.151-0.334 0.498-0.864 0.685-1.423 0.793-0.549 0.068-1.185-0.049-1.645-0.366-0.471-0.325-0.613-0.733-0.719-1.266l1.176-0.009c0.071 0.18 0.136 0.32 0.289 0.445 0.203 0.166 0.444 0.242 0.706 0.207 0.203-0.027 0.403-0.12 0.525-0.29 0.079-0.112 0.119-0.247 0.081-0.383-0.147-0.523-1.446-0.491-1.961-0.768-0.348-0.188-0.624-0.5-0.734-0.883-0.094-0.324-0.054-0.662 0.117-0.953 0.285-0.483 0.806-0.719 1.33-0.84z"></path>
<path fill="#764191" style="fill: var(--color2, #764191)" d="M35.074 14.434c0.39 0.013 0.784 0.005 1.175 0.007-0.004 0.441 0.002 0.882 0.019 1.323l1.159 0.001-0.003 1.010-1.104-0c0 0.636-0.145 2.276 0.147 2.767 0.228 0.18 0.683 0.112 0.959 0.109l-0.004 0.837c0.003 0.086 0.002 0.13-0.042 0.205-0.154 0.074-0.312 0.091-0.483 0.092-0.448 0.004-1.067-0.077-1.39-0.413-0.647-0.674-0.441-2.657-0.437-3.598l-0.748 0.001 0.002-1.012 0.745 0.005 0.004-1.333z"></path>
<path fill="#764191" style="fill: var(--color2, #764191)" d="M45.148 14.429l1.153 0.007c-0.009 0.442 0.010 0.886 0.018 1.327l1.178-0.002-0.002 1.015-1.108-0.001c0.014 0.605-0.135 2.295 0.139 2.753 0.295 0.176 0.663 0.129 0.995 0.128-0.004 0.291 0.002 0.584 0.003 0.876l-0.014 0.111c-0.114 0.121-0.29 0.115-0.445 0.119-0.474 0.011-1.127-0.064-1.471-0.423-0.641-0.671-0.441-2.626-0.436-3.564l-0.789 0c-0.010-0.336-0.006-0.673-0.009-1.009l0.786 0.004 0.002-1.341z"></path>
<path fill="#764191" style="fill: var(--color2, #764191)" d="M20.277 13.674c0.061-0.003 0.119-0.004 0.18 0.005 0.188 0.027 0.374 0.118 0.478 0.284 0.11 0.176 0.125 0.409 0.14 0.613 0.075 1.006 0.019 2.053 0.019 3.063-0 0.825 0.091 1.943-0.062 2.737-0.048 0.25-0.214 0.369-0.412 0.504-0.076 0.009-0.155 0.020-0.231 0.015-0.17-0.010-0.331-0.085-0.441-0.215-0.109-0.128-0.106-0.386-0.115-0.548-0.069-1.158-0.011-2.352-0.010-3.513 0.001-0.66-0.090-1.923 0.049-2.512 0.050-0.211 0.239-0.321 0.405-0.433z"></path>
<path fill="#764191" style="fill: var(--color2, #764191)" d="M33.645 15.746l0.166-0.002c0.196 0.22 0.099 0.915 0.093 1.203-0.415-0.004-0.807-0.021-1.132 0.281-0.61 0.566-0.404 2.638-0.41 3.47-0.327-0.003-0.964 0.116-1.213-0.091l-0.013-0.206c0.006-1.541-0.033-3.082-0.023-4.623 0.396 0.012 0.793 0.004 1.189 0.002l-0.014 0.681c0.073-0.105 0.146-0.218 0.232-0.314 0.3-0.338 0.707-0.369 1.127-0.399z"></path>
<path fill="#764191" style="fill: var(--color2, #764191)" d="M38.147 15.766l1.243 0.001 0.003 4.933-1.258-0.002 0.011-4.932z"></path>
<path fill="#764191" style="fill: var(--color2, #764191)" d="M18.54 15.29c0.204 0.038 0.385 0.114 0.504 0.292 0.183 0.274 0.188 2.954 0.096 3.336-0.050 0.209-0.231 0.311-0.403 0.412-0.197-0.012-0.455-0.029-0.586-0.2-0.195-0.253-0.179-3.102-0.068-3.459 0.065-0.208 0.278-0.295 0.456-0.381z"></path>
<path fill="#764191" style="fill: var(--color2, #764191)" d="M38.687 13.734c0.369-0.043 0.707 0.215 0.761 0.583s-0.194 0.712-0.56 0.778c-0.247 0.044-0.498-0.050-0.655-0.245s-0.197-0.46-0.102-0.692c0.095-0.232 0.308-0.394 0.556-0.424z"></path>
</symbol>
<symbol id="icon-down-arrow-alt" viewBox="0 0 31 32">
<path fill="#fff" style="fill: var(--color1, #fff)" d="M23.945 17.409l-1.81-1.81-5.495 5.495v-12.27h-2.56v12.27l-5.495-5.495-1.81 1.81 8.585 8.585 8.585-8.585z"></path>
</symbol>
<symbol id="icon-Facebook" viewBox="0 0 31 32">
<path fill="#fff" style="fill: var(--color1, #fff)" d="M28.618 16.699c0-7.228-5.824-13.088-13.008-13.088s-13.008 5.86-13.008 13.088c0 6.532 4.757 11.947 10.976 12.929v-9.146h-3.303v-3.783h3.303v-2.883c0-3.28 1.942-5.092 4.913-5.092 1.423 0 2.912 0.256 2.912 0.256v3.221h-1.64c-1.616 0-2.12 1.009-2.12 2.044v2.455h3.608l-0.577 3.783h-3.031v9.146c6.219-0.982 10.976-6.396 10.976-12.929z"></path>
</symbol>
<symbol id="icon-Instagram" viewBox="0 0 31 32">
<path fill="#fff" style="fill: var(--color1, #fff)" d="M20.813 4.912h-10.407c-3.592 0-6.504 2.912-6.504 6.504v10.406c0 3.592 2.912 6.504 6.504 6.504h10.407c3.592 0 6.504-2.912 6.504-6.504v-10.406c0-3.592-2.912-6.504-6.504-6.504zM25.041 21.822c-0.007 2.332-1.896 4.221-4.228 4.228h-10.407c-2.332-0.007-4.22-1.896-4.228-4.228v-10.406c0.007-2.332 1.896-4.221 4.228-4.228h10.407c2.332 0.007 4.221 1.896 4.228 4.228v10.406zM21.789 11.741c0.718 0 1.301-0.582 1.301-1.301s-0.582-1.301-1.301-1.301c-0.718 0-1.301 0.582-1.301 1.301s0.582 1.301 1.301 1.301zM15.61 10.765c-3.233 0-5.854 2.621-5.854 5.854s2.621 5.854 5.854 5.854c3.233 0 5.854-2.621 5.854-5.854 0.003-1.554-0.612-3.044-1.711-4.143s-2.589-1.714-4.143-1.711zM12.033 16.619c0 1.976 1.602 3.577 3.577 3.577s3.577-1.602 3.577-3.577c0-1.976-1.602-3.577-3.577-3.577s-3.577 1.602-3.577 3.577z"></path>
</symbol>
<symbol id="icon-logo-icon" viewBox="0 0 32 32">
<path fill="#fff" style="fill: var(--color1, #fff)" d="M17.501 3.14c0.384-0.041 0.83 0.039 1.2 0.144 0.838 0.238 1.518 0.747 1.922 1.474 0.42 0.745 0.501 1.617 0.224 2.417-0.352 0.988-1.105 1.484-2.047 1.94l0.011 2.881c0.673 0.191 1.328 0.407 1.939 0.737 1.404 0.758 2.365 2.038 2.768 3.493 0.426 1.526 0.183 3.147-0.673 4.507-0.786 1.233-2.039 2.144-3.539 2.493-1.959 0.456-3.621-0.038-5.305-0.971-0.744 0.742-1.48 1.492-2.206 2.25 0.325 0.713 0.432 1.461 0.217 2.219-0.21 0.741-0.768 1.376-1.48 1.751-0.799 0.421-1.709 0.498-2.584 0.264-0.869-0.232-1.6-0.733-2.024-1.487-0.418-0.741-0.453-1.61-0.182-2.401 0.308-0.899 0.936-1.453 1.819-1.864 0.95-0.346 1.736-0.232 2.664 0.079 0.772-0.757 1.5-1.553 2.28-2.304-0.858-1.567-1.135-2.902-0.689-4.629-0.971-0.422-1.907-0.914-2.879-1.337-0.519 0.504-1.154 0.849-1.899 0.965-0.889 0.139-1.826-0.087-2.556-0.573-0.724-0.489-1.2-1.233-1.317-2.059-0.12-0.8 0.106-1.683 0.656-2.314 0.567-0.652 1.448-1.045 2.337-1.131 0.874-0.079 1.745 0.169 2.422 0.69 0.865 0.675 1.115 1.514 1.22 2.515 0.921 0.526 1.975 0.932 2.935 1.401 1.248-1.375 2.16-1.809 3.98-2.332l0.002-2.859c-0.326-0.121-0.651-0.269-0.935-0.464-0.718-0.495-1.189-1.24-1.306-2.065-0.108-0.821 0.141-1.648 0.691-2.297 0.601-0.702 1.404-1.022 2.336-1.137zM21.512 17.362c-0.185-1.967-2.040-3.425-4.152-3.265-2.131 0.162-3.713 1.908-3.526 3.892s2.072 3.448 4.2 3.262c2.11-0.185 3.663-1.922 3.478-3.889z"></path>
<path fill="#fff" style="fill: var(--color1, #fff)" d="M27.617 12.585c0.090-0.004 0.178-0.005 0.267 0.007 0.28 0.038 0.556 0.164 0.71 0.393 0.164 0.243 0.186 0.567 0.209 0.849 0.111 1.394 0.029 2.844 0.028 4.243-0 1.142 0.136 2.691-0.092 3.791-0.072 0.346-0.318 0.511-0.612 0.698-0.112 0.013-0.23 0.027-0.343 0.021-0.253-0.013-0.492-0.118-0.656-0.298-0.162-0.178-0.157-0.535-0.171-0.759-0.103-1.603-0.016-3.258-0.014-4.866 0.001-0.914-0.134-2.663 0.072-3.479 0.074-0.292 0.356-0.445 0.603-0.6z"></path>
<path fill="#fff" style="fill: var(--color1, #fff)" d="M25.036 14.825c0.303 0.052 0.572 0.158 0.749 0.404 0.273 0.379 0.28 4.091 0.143 4.621-0.075 0.29-0.344 0.431-0.599 0.57-0.292-0.016-0.676-0.040-0.871-0.276-0.29-0.351-0.266-4.296-0.101-4.791 0.096-0.287 0.413-0.409 0.678-0.528z"></path>
</symbol>
<symbol id="icon-logo" viewBox="0 0 110 32">
<path fill="#fff" style="fill: var(--color1, #fff)" d="M16.403 0.142c0.434-0.050 0.936 0.047 1.354 0.174 0.945 0.288 1.714 0.905 2.169 1.785 0.474 0.902 0.564 1.957 0.252 2.927-0.397 1.196-1.247 1.797-2.309 2.35l0.012 3.489c0.759 0.231 1.498 0.495 2.187 0.894 1.584 0.919 2.669 2.467 3.123 4.23 0.48 1.848 0.207 3.812-0.76 5.459-0.887 1.493-2.3 2.597-3.993 3.019-2.211 0.552-4.086-0.047-5.986-1.176-0.84 0.898-1.67 1.807-2.489 2.725 0.366 0.864 0.487 1.77 0.244 2.687-0.237 0.897-0.866 1.666-1.67 2.121-0.901 0.51-1.928 0.603-2.916 0.321-0.981-0.281-1.805-0.889-2.284-1.801-0.472-0.897-0.511-1.949-0.206-2.907 0.348-1.089 1.057-1.759 2.053-2.257 1.072-0.419 1.958-0.281 3.005 0.096 0.872-0.917 1.693-1.88 2.574-2.789-0.968-1.898-1.281-3.515-0.778-5.606-1.096-0.511-2.153-1.108-3.249-1.62-0.586 0.61-1.301 1.028-2.142 1.169-1.003 0.169-2.061-0.105-2.885-0.694-0.817-0.592-1.354-1.493-1.486-2.493-0.135-0.97 0.12-2.038 0.741-2.803 0.64-0.789 1.634-1.265 2.637-1.37 0.986-0.096 1.97 0.205 2.734 0.836 0.976 0.818 1.258 1.834 1.376 3.045 1.039 0.637 2.229 1.129 3.312 1.698 1.409-1.665 2.439-2.191 4.492-2.824l0.002-3.463c-0.368-0.147-0.735-0.326-1.055-0.561-0.81-0.599-1.341-1.502-1.473-2.501-0.121-0.994 0.159-1.996 0.779-2.782 0.678-0.851 1.585-1.238 2.636-1.377zM20.931 17.367c-0.209-2.382-2.302-4.148-4.686-3.955-2.404 0.196-4.189 2.311-3.979 4.714 0.211 2.404 2.337 4.176 4.739 3.951 2.381-0.224 4.134-2.328 3.925-4.71z"></path>
<path fill="#fff" style="fill: var(--color1, #fff)" d="M102.107 11.958c0.708 0.001 1.415 0.011 2.124 0.029l-0.004 3.742c0.546-0.424 1.14-0.739 1.831-0.843 0.933-0.141 1.884 0.1 2.637 0.669 0.908 0.687 1.384 1.844 1.523 2.949 0.175 1.401-0.154 2.749-1.019 3.866-0.574 0.554-1.263 0.941-2.057 1.072-1.165 0.191-2.088-0.216-2.998-0.894l-0.004 0.817-2.032-0.003-0.001-11.404zM105.747 16.862c-0.632 0.21-1.070 0.51-1.378 1.118-0.342 0.675-0.365 1.508-0.099 2.211 0.204 0.538 0.585 1.004 1.118 1.244 0.385 0.175 0.749 0.18 1.164 0.155 0.66-0.249 1.103-0.569 1.402-1.229 0.311-0.689 0.307-1.52 0.011-2.214-0.228-0.533-0.632-0.963-1.177-1.174-0.341-0.131-0.682-0.149-1.042-0.111z"></path>
<path fill="#fff" style="fill: var(--color1, #fff)" d="M41.272 11.936c1.246 3.84 2.84 7.575 4.055 11.425l-2.296 0.003c-0.269-0.822-0.529-1.752-0.939-2.512-0.268-0.115-0.586-0.076-0.873-0.073-1.108 0.011-2.215 0.007-3.323-0.012-0.348 0.849-0.628 1.722-0.903 2.596l-2.339-0.002c1.221-3.833 2.677-7.617 3.996-11.42 0.872 0.019 1.749-0.001 2.622-0.005zM39.964 14.775c-0.483 1.374-0.934 2.768-1.464 4.125l1.681-0.001 1.306-0.015c-0.184-0.518-1.25-3.88-1.524-4.109z"></path>
<path fill="#fff" style="fill: var(--color1, #fff)" d="M89.685 11.961l2.196 0.013c-0.030 2.647-0.007 5.298-0.007 7.945-0.001 1.093 0.11 2.287-0.013 3.365l-0.121 0.083h-2.058l-0.004-4.889c-1.645-0.046-3.303-0.005-4.949-0.003l0.001 4.894-2.209-0.004 0.009-11.401 2.2 0.005 0.002 4.662h4.957l-0.003-4.67z"></path>
<path fill="#fff" style="fill: var(--color1, #fff)" d="M93.202 15.121c0.729 0.021 1.46 0.013 2.188 0.017-0.009 1.165-0.193 4.384 0.089 5.347 0.111 0.38 0.333 0.728 0.693 0.913 0.541 0.278 1.090 0.117 1.628-0.072 0.238-0.266 0.443-0.515 0.561-0.859 0.386-1.123 0.18-4.006 0.174-5.343 0.694 0.019 1.391 0.004 2.085 0-0.016 0.8-0.003 1.603-0.004 2.404l0.011 5.834c-0.683 0.010-1.365 0.005-2.047-0.015l-0.063-0.074c0.010-0.173 0.013-0.314-0.018-0.487-0.639 0.277-1.209 0.697-1.936 0.712-0.843 0.017-1.758-0.245-2.363-0.852-0.459-0.459-0.739-1.076-0.883-1.703-0.31-1.348-0.127-4.332-0.113-5.824z"></path>
<path fill="#fff" style="fill: var(--color1, #fff)" d="M63.686 14.891c1.089-0.085 2.224-0.008 3.104 0.725 0.617 0.514 0.816 1.13 0.883 1.897l-1.968-0.002c-0.113-0.21-0.227-0.454-0.404-0.619-0.284-0.262-0.694-0.398-1.078-0.377-0.298 0.016-0.679 0.135-0.865 0.387-0.113 0.154-0.175 0.311-0.132 0.503 0.224 1.009 2.79 0.884 3.607 1.419 0.52 0.341 0.919 0.951 1.034 1.56 0.115 0.623-0.033 1.266-0.409 1.775-0.627 0.865-1.593 1.175-2.599 1.329-0.931 0.056-2.011-0.194-2.756-0.761-0.699-0.532-0.95-1.185-1.045-2.025 0.663 0.001 1.326-0.005 1.989-0.018 0.039 0.125 0.082 0.245 0.145 0.361 0.289 0.533 0.865 0.651 1.4 0.808 0.353-0.081 0.831-0.172 1.082-0.457 0.151-0.172 0.204-0.471 0.14-0.691-0.245-0.843-2.703-0.943-3.556-1.468-0.505-0.311-0.876-0.764-1.011-1.349-0.121-0.53-0.075-1.125 0.223-1.59 0.538-0.84 1.28-1.185 2.216-1.408z"></path>
<path fill="#fff" style="fill: var(--color1, #fff)" d="M76.93 14.889c0.62-0.050 1.227-0.047 1.831 0.117 0.697 0.189 1.438 0.578 1.79 1.239 0.169 0.317 0.3 0.886 0.186 1.237-0.565 0.122-1.255 0.040-1.835 0.033-0.085-0.287-0.158-0.509-0.391-0.707-0.295-0.247-0.679-0.364-1.062-0.322-0.3 0.031-0.685 0.178-0.852 0.447-0.1 0.16-0.141 0.325-0.078 0.509 0.362 1.068 2.535 0.814 3.38 1.297 0.538 0.308 0.988 0.848 1.141 1.454 0.164 0.65 0.056 1.372-0.319 1.931-0.56 0.835-1.449 1.149-2.388 1.331-0.922 0.114-1.989-0.082-2.759-0.613-0.791-0.545-1.028-1.229-1.206-2.123l1.973-0.015c0.12 0.302 0.229 0.537 0.485 0.746 0.341 0.279 0.745 0.406 1.184 0.347 0.341-0.045 0.676-0.202 0.88-0.487 0.133-0.187 0.2-0.414 0.136-0.642-0.247-0.878-2.426-0.823-3.29-1.288-0.584-0.315-1.046-0.838-1.231-1.481-0.157-0.544-0.091-1.11 0.196-1.599 0.477-0.81 1.353-1.206 2.231-1.409z"></path>
<path fill="#fff" style="fill: var(--color1, #fff)" d="M52.641 12.857c0.655 0.023 1.315 0.009 1.97 0.011-0.007 0.74 0.004 1.48 0.032 2.219l1.944 0.001-0.004 1.694-1.851-0.001c0.001 1.066-0.243 3.817 0.246 4.641 0.382 0.301 1.145 0.189 1.609 0.183l-0.007 1.404c0.004 0.145 0.004 0.218-0.070 0.344-0.259 0.124-0.524 0.152-0.81 0.154-0.752 0.007-1.791-0.129-2.331-0.693-1.086-1.131-0.739-4.457-0.734-6.035l-1.254 0.002 0.004-1.698 1.249 0.008 0.007-2.236z"></path>
<path fill="#fff" style="fill: var(--color1, #fff)" d="M69.54 12.848l1.934 0.011c-0.015 0.741 0.016 1.485 0.030 2.226l1.976-0.004-0.003 1.702-1.859-0.001c0.023 1.015-0.226 3.85 0.234 4.617 0.494 0.295 1.113 0.216 1.669 0.215-0.007 0.489 0.003 0.979 0.005 1.469l-0.023 0.186c-0.191 0.202-0.486 0.194-0.747 0.2-0.794 0.019-1.891-0.107-2.467-0.71-1.075-1.126-0.74-4.405-0.731-5.978l-1.323 0.001c-0.017-0.564-0.010-1.129-0.015-1.692l1.318 0.007 0.004-2.249z"></path>
<path fill="#fff" style="fill: var(--color1, #fff)" d="M27.821 11.582c0.102-0.005 0.2-0.007 0.302 0.008 0.316 0.046 0.628 0.198 0.802 0.476 0.185 0.294 0.21 0.687 0.235 1.028 0.125 1.688 0.032 3.444 0.032 5.138-0 1.384 0.153 3.26-0.104 4.592-0.081 0.419-0.359 0.619-0.691 0.846-0.127 0.015-0.259 0.033-0.387 0.026-0.285-0.016-0.556-0.143-0.74-0.361-0.183-0.216-0.177-0.648-0.193-0.919-0.116-1.942-0.018-3.946-0.016-5.893 0.001-1.107-0.151-3.225 0.082-4.213 0.083-0.353 0.402-0.539 0.68-0.727z"></path>
<path fill="#fff" style="fill: var(--color1, #fff)" d="M50.243 15.058l0.278-0.003c0.329 0.368 0.166 1.535 0.155 2.018-0.696-0.007-1.354-0.035-1.899 0.471-1.023 0.949-0.678 4.425-0.688 5.82-0.548-0.005-1.617 0.195-2.035-0.154l-0.022-0.346c0.010-2.586-0.055-5.169-0.038-7.754 0.664 0.021 1.33 0.007 1.994 0.003l-0.023 1.142c0.123-0.177 0.246-0.366 0.389-0.527 0.503-0.568 1.186-0.619 1.891-0.669z"></path>
<path fill="#fff" style="fill: var(--color1, #fff)" d="M57.795 15.092l2.086 0.001 0.005 8.275-2.11-0.003 0.019-8.273z"></path>
<path fill="#fff" style="fill: var(--color1, #fff)" d="M24.906 14.293c0.343 0.063 0.645 0.192 0.845 0.489 0.308 0.459 0.316 4.955 0.162 5.596-0.084 0.351-0.388 0.522-0.675 0.691-0.33-0.020-0.763-0.049-0.983-0.335-0.327-0.425-0.3-5.203-0.114-5.802 0.108-0.348 0.466-0.495 0.765-0.639z"></path>
<path fill="#fff" style="fill: var(--color1, #fff)" d="M58.701 11.683c0.62-0.073 1.185 0.36 1.276 0.978s-0.325 1.195-0.939 1.304c-0.414 0.073-0.835-0.084-1.099-0.411s-0.33-0.771-0.171-1.161c0.159-0.389 0.516-0.661 0.933-0.71z"></path>
</symbol>
<symbol id="icon-menu-alt-right" viewBox="0 0 32 32">
<path fill="#fff" style="fill: var(--color1, #fff)" d="M5.333 8h21.333v2.667h-21.333v-2.667zM10.667 14.667h16v2.667h-16v-2.667zM17.333 21.333h9.333v2.667h-9.333v-2.667z"></path>
</symbol>
<symbol id="icon-modal-btn" viewBox="0 0 32 32">
<path fill="#fff" style="fill: var(--color1, #fff)" d="M22.835 22.364l-0.471 0.471c-0.26 0.26-0.682 0.26-0.943 0l-5.421-5.421-5.421 5.421c-0.26 0.26-0.682 0.26-0.943 0l-0.471-0.471c-0.26-0.26-0.26-0.682 0-0.943l5.421-5.421-5.421-5.421c-0.26-0.26-0.26-0.682 0-0.943l0.471-0.471c0.26-0.26 0.682-0.26 0.943 0l5.421 5.421 5.421-5.421c0.26-0.26 0.683-0.26 0.943 0l0.471 0.471c0.26 0.26 0.26 0.682 0 0.943l-5.421 5.421 5.421 5.421c0.26 0.26 0.26 0.683 0 0.943z"></path>
</symbol>
<symbol id="icon-right-arrow" viewBox="0 0 31 32">
<path fill="#fff" style="fill: var(--color1, #fff)" d="M7.086 28.654c0.207 0.108 0.44 0.157 0.673 0.143s0.458-0.092 0.65-0.224l16.64-11.52c0.17-0.118 0.309-0.275 0.405-0.458s0.146-0.387 0.146-0.594-0.050-0.411-0.146-0.594c-0.096-0.183-0.235-0.34-0.405-0.458l-16.64-11.52c-0.192-0.134-0.417-0.212-0.65-0.227s-0.466 0.035-0.674 0.143c-0.207 0.109-0.381 0.272-0.501 0.472s-0.184 0.43-0.183 0.664v23.040c-0 0.234 0.064 0.463 0.185 0.663s0.294 0.363 0.501 0.471zM8.96 6.924l13.111 9.076-13.111 9.076v-18.153z"></path>
</symbol>
<symbol id="icon-Youtube" viewBox="0 0 31 32">
<path fill="#fff" style="fill: var(--color1, #fff)" d="M28.089 10.063c-0.148-0.55-0.438-1.051-0.84-1.454s-0.903-0.694-1.452-0.843c-2.037-0.559-10.187-0.568-10.187-0.568s-8.148-0.009-10.187 0.526c-0.549 0.156-1.049 0.451-1.451 0.856s-0.694 0.907-0.846 1.457c-0.537 2.037-0.542 6.262-0.542 6.262s-0.005 4.246 0.528 6.262c0.299 1.115 1.177 1.995 2.293 2.296 2.058 0.559 10.185 0.568 10.185 0.568s8.15 0.009 10.187-0.524c0.55-0.149 1.051-0.439 1.454-0.841s0.694-0.903 0.845-1.452c0.539-2.036 0.542-6.259 0.542-6.259s0.026-4.247-0.529-6.284zM13.003 20.212l0.006-7.805 6.773 3.909-6.78 3.896z"></path>
</symbol>
<symbol id="icon-left-arrow-alt" viewBox="0 0 31 32">
<path fill="#fff" style="fill: var(--color1, #fff)" d="M16.265 23.366l-5.495-5.495h12.27v-2.56h-12.27l5.495-5.495-1.81-1.81-8.585 8.585 8.585 8.585 1.81-1.81z"></path>
</symbol>
<symbol id="icon-right-arrow-alt" viewBox="0 0 31 32">
<path fill="#fff" style="fill: var(--color1, #fff)" d="M14.455 23.366l1.81 1.81 8.585-8.585-8.585-8.585-1.81 1.81 5.495 5.495h-12.27v2.56h12.27l-5.495 5.495z"></path>
</symbol>
</defs>
</svg>
