<svg width="24.000000" height="24.000000" viewBox="0 0 24 24" fill="none" xmlns="http://www.w3.org/2000/svg" xmlns:xlink="http://www.w3.org/1999/xlink">
	<desc>
			Created with Pixso.
	</desc>
	<defs/>
	<path id="Subtract" d="M13.125 2.35495C13.4141 2.32404 13.748 2.38419 14.0254 2.46301C14.6533 2.64136 15.1641 3.02316 15.4668 3.5683C15.7822 4.12714 15.8418 4.7804 15.6348 5.38113C15.3711 6.12198 14.8057 6.49429 14.0996 6.83667L14.1074 8.99744C14.6123 9.14084 15.1035 9.30316 15.5615 9.55066C16.6143 10.1195 17.335 11.0788 17.6367 12.1703C17.9561 13.3148 17.7744 14.531 17.1318 15.5511C16.543 16.4758 15.6035 17.1587 14.4785 17.4203C13.0088 17.7625 11.7627 17.3918 10.499 16.6921C9.94141 17.2484 9.38965 17.8109 8.84473 18.3794C9.08887 18.9143 9.16895 19.4756 9.00781 20.044C8.84961 20.5998 8.43164 21.0759 7.89746 21.3575C7.29785 21.6733 6.61523 21.7308 5.95898 21.5557C5.30664 21.3819 4.75977 21.0058 4.44043 20.4405C4.12695 19.8847 4.10059 19.2334 4.30371 18.6401C4.53516 17.9657 5.00586 17.5502 5.66895 17.242C6.38184 16.9822 6.9707 17.0677 7.66602 17.3013C8.24609 16.7333 8.79102 16.1368 9.37598 15.5737C8.7334 14.3983 8.52441 13.3972 8.85938 12.102C8.13086 11.7852 7.42871 11.4164 6.7002 11.0991C6.31055 11.4768 5.83496 11.7357 5.27637 11.8233C4.60938 11.9278 3.90625 11.7584 3.3584 11.3938C2.81641 11.0273 2.45898 10.469 2.37109 9.84982C2.28125 9.24942 2.45117 8.58777 2.86328 8.11389C3.28906 7.62518 3.94922 7.33041 4.61621 7.26532C5.27148 7.20584 5.92578 7.39206 6.43262 7.78271C7.08203 8.28918 7.26953 8.91861 7.34766 9.66891C8.03906 10.0635 8.8291 10.3676 9.54883 10.7199C10.4854 9.68857 11.1699 9.36337 12.5342 8.97137L12.5352 6.827C12.291 6.73587 12.0469 6.62512 11.834 6.47931C11.2959 6.10818 10.9424 5.54907 10.8555 4.93033C10.7744 4.31476 10.9609 3.69458 11.373 3.20782C11.8242 2.681 12.4268 2.44113 13.125 2.35495ZM16.1338 13.0217C15.9951 11.5465 14.6045 10.4525 13.0205 10.5726C11.4219 10.6937 10.2354 12.0038 10.375 13.4919C10.5156 14.9805 11.9287 16.078 13.5254 15.9382C15.1074 15.7992 16.2725 14.4966 16.1338 13.0217Z" clip-rule="evenodd" fill="#5F25A8" fill-opacity="1.000000" fill-rule="evenodd"/>
	<path id="Vector" d="M20.71 9.43C20.78 9.43 20.84 9.43 20.91 9.44C21.12 9.47 21.33 9.56 21.44 9.73C21.56 9.92 21.58 10.16 21.6 10.37C21.68 11.42 21.62 12.5 21.62 13.55C21.62 14.41 21.72 15.57 21.55 16.4C21.5 16.66 21.31 16.78 21.09 16.92C21.01 16.93 20.92 16.94 20.83 16.94C20.64 16.93 20.46 16.85 20.34 16.71C20.22 16.58 20.22 16.31 20.21 16.14C20.14 14.94 20.2 13.7 20.2 12.49C20.2 11.81 20.1 10.5 20.26 9.88C20.31 9.67 20.52 9.55 20.71 9.43Z" fill="#5F25A8" fill-opacity="1.000000" fill-rule="nonzero"/>
	<path id="Vector" d="M18.77 11.11C19 11.15 19.2 11.23 19.33 11.42C19.54 11.7 19.54 14.49 19.44 14.88C19.38 15.1 19.18 15.21 18.99 15.31C18.77 15.3 18.49 15.28 18.34 15.1C18.12 14.84 18.14 11.88 18.26 11.51C18.33 11.29 18.57 11.2 18.77 11.11Z" fill="#5F25A8" fill-opacity="1.000000" fill-rule="nonzero"/>
</svg>
